<svg xmlns="http://www.w3.org/2000/svg" fill="none" viewBox="0 0 24 24"><g clip-path="url(#a)"><circle cx="12" cy="12" r="12" fill="#000"/><path fill="#8ffcf3" d="M12 4v5.912l5 2.236z"/><path fill="#cabcf8" d="m12 4-5 8.148 5-2.236z"/><path fill="#cba7f5" d="M12 15.98V20l5-6.92z"/><path fill="#74a0f3" d="M12 20v-4.02l-5-2.9z"/><path fill="#cba7f5" d="m12 15.048 5-2.9-5-2.236z"/><path fill="#74a0f3" d="m7 12.148 5 2.9V9.912z"/><path fill="#202699" fill-rule="evenodd" d="m12 15.048-5-2.9L12 4l5 8.148zm-4.668-3.136 4.588-7.476v5.436zm-.068.204 4.656-2.068v4.768zm4.816-2.068v4.768l4.652-2.7zm0-.176 4.588 2.04-4.588-7.476z" clip-rule="evenodd"/><path fill="#202699" fill-rule="evenodd" d="m12 15.916-5-2.84L12 20l5-6.924zm-4.44-2.34 4.36 2.48v3.56zm4.52 2.48v3.56l4.36-6.04z" clip-rule="evenodd"/></g><defs><clipPath id="a"><circle cx="12" cy="12" r="12"/></clipPath></defs></svg>